<mxfile host="app.diagrams.net" modified="2023-01-10T15:28:50.825Z" agent="5.0 (Windows NT 10.0; Win64; x64) AppleWebKit/537.36 (KHTML, like Gecko) Chrome/108.0.0.0 Safari/537.36 Edg/108.0.1462.76" etag="6HrizRZa0frgNO3YUaTj" version="20.4.1" type="github">
  <diagram id="S04MwUyIPp1UBXvl9L6S" name="Seite-1">
    <mxGraphModel dx="713" dy="638" grid="1" gridSize="10" guides="1" tooltips="1" connect="1" arrows="1" fold="1" page="1" pageScale="1" pageWidth="827" pageHeight="1169" math="0" shadow="0">
      <root>
        <mxCell id="0" />
        <mxCell id="1" parent="0" />
        <mxCell id="1cqTLkAXftHqGeJ1FnXz-15" value="" style="group;fontStyle=4" parent="1" vertex="1" connectable="0">
          <mxGeometry x="460" width="290" height="320" as="geometry" />
        </mxCell>
        <mxCell id="1cqTLkAXftHqGeJ1FnXz-7" value="Azure Cloud" style="verticalAlign=top;align=left;spacingTop=8;spacingLeft=2;spacingRight=12;shape=cube;size=10;direction=south;fontStyle=4;html=1;" parent="1cqTLkAXftHqGeJ1FnXz-15" vertex="1">
          <mxGeometry width="290" height="320" as="geometry" />
        </mxCell>
        <mxCell id="1cqTLkAXftHqGeJ1FnXz-8" value="" style="verticalLabelPosition=bottom;html=1;verticalAlign=top;align=center;strokeColor=none;fillColor=#00BEF2;shape=mxgraph.azure.azure_instance;" parent="1cqTLkAXftHqGeJ1FnXz-15" vertex="1">
          <mxGeometry x="10" y="30.91" width="29.24" height="28.18" as="geometry" />
        </mxCell>
        <mxCell id="1cqTLkAXftHqGeJ1FnXz-24" style="edgeStyle=orthogonalEdgeStyle;rounded=0;orthogonalLoop=1;jettySize=auto;html=1;entryX=0.651;entryY=0.054;entryDx=0;entryDy=0;entryPerimeter=0;" parent="1cqTLkAXftHqGeJ1FnXz-15" source="1cqTLkAXftHqGeJ1FnXz-9" target="1cqTLkAXftHqGeJ1FnXz-20" edge="1">
          <mxGeometry relative="1" as="geometry">
            <Array as="points">
              <mxPoint x="224" y="190" />
              <mxPoint x="85" y="190" />
            </Array>
          </mxGeometry>
        </mxCell>
        <mxCell id="1cqTLkAXftHqGeJ1FnXz-38" style="edgeStyle=orthogonalEdgeStyle;rounded=0;orthogonalLoop=1;jettySize=auto;html=1;" parent="1cqTLkAXftHqGeJ1FnXz-15" source="1cqTLkAXftHqGeJ1FnXz-9" target="1cqTLkAXftHqGeJ1FnXz-29" edge="1">
          <mxGeometry relative="1" as="geometry">
            <Array as="points">
              <mxPoint x="165" y="170" />
            </Array>
          </mxGeometry>
        </mxCell>
        <mxCell id="JNHqikHPYWaPrXhBGyIR-4" value="" style="edgeStyle=none;rounded=0;orthogonalLoop=1;jettySize=auto;html=1;" edge="1" parent="1cqTLkAXftHqGeJ1FnXz-15" source="1cqTLkAXftHqGeJ1FnXz-9" target="JNHqikHPYWaPrXhBGyIR-2">
          <mxGeometry relative="1" as="geometry" />
        </mxCell>
        <mxCell id="1cqTLkAXftHqGeJ1FnXz-9" value="Bergfest-Webhook" style="aspect=fixed;html=1;points=[];align=center;image;fontSize=12;image=img/lib/azure2/compute/Function_Apps.svg;" parent="1cqTLkAXftHqGeJ1FnXz-15" vertex="1">
          <mxGeometry x="120" y="236.01" width="70" height="61.76" as="geometry" />
        </mxCell>
        <mxCell id="1cqTLkAXftHqGeJ1FnXz-23" style="edgeStyle=orthogonalEdgeStyle;rounded=0;orthogonalLoop=1;jettySize=auto;html=1;" parent="1cqTLkAXftHqGeJ1FnXz-15" source="1cqTLkAXftHqGeJ1FnXz-10" target="1cqTLkAXftHqGeJ1FnXz-20" edge="1">
          <mxGeometry relative="1" as="geometry" />
        </mxCell>
        <mxCell id="1cqTLkAXftHqGeJ1FnXz-35" style="edgeStyle=orthogonalEdgeStyle;rounded=0;orthogonalLoop=1;jettySize=auto;html=1;entryX=1;entryY=0.5;entryDx=0;entryDy=0;" parent="1cqTLkAXftHqGeJ1FnXz-15" source="1cqTLkAXftHqGeJ1FnXz-10" target="1cqTLkAXftHqGeJ1FnXz-20" edge="1">
          <mxGeometry relative="1" as="geometry">
            <Array as="points">
              <mxPoint x="55" y="170" />
              <mxPoint x="170" y="170" />
              <mxPoint x="170" y="56" />
              <mxPoint x="150" y="56" />
            </Array>
          </mxGeometry>
        </mxCell>
        <mxCell id="1cqTLkAXftHqGeJ1FnXz-10" value="Bergfest Static Web App" style="aspect=fixed;html=1;points=[];align=center;image;fontSize=12;image=img/lib/azure2/preview/Static_Apps.svg;" parent="1cqTLkAXftHqGeJ1FnXz-15" vertex="1">
          <mxGeometry x="20" y="180.00272727272727" width="70" height="56.00000000000001" as="geometry" />
        </mxCell>
        <mxCell id="1cqTLkAXftHqGeJ1FnXz-20" value="BackendLibrary" style="shape=module;align=left;spacingLeft=20;align=center;verticalAlign=top;" parent="1cqTLkAXftHqGeJ1FnXz-15" vertex="1">
          <mxGeometry x="50" y="40" width="100" height="50" as="geometry" />
        </mxCell>
        <mxCell id="1cqTLkAXftHqGeJ1FnXz-29" value="Cosmos DB NoSql&lt;br&gt;Database" style="aspect=fixed;html=1;points=[];align=center;image;fontSize=12;image=img/lib/azure2/databases/Azure_Cosmos_DB.svg;" parent="1cqTLkAXftHqGeJ1FnXz-15" vertex="1">
          <mxGeometry x="212.5" y="30.91" width="50" height="50" as="geometry" />
        </mxCell>
        <mxCell id="1cqTLkAXftHqGeJ1FnXz-30" style="edgeStyle=orthogonalEdgeStyle;rounded=0;orthogonalLoop=1;jettySize=auto;html=1;exitX=0.5;exitY=0.93;exitDx=0;exitDy=0;exitPerimeter=0;entryX=0.591;entryY=0.534;entryDx=0;entryDy=0;entryPerimeter=0;" parent="1cqTLkAXftHqGeJ1FnXz-15" source="1cqTLkAXftHqGeJ1FnXz-8" target="1cqTLkAXftHqGeJ1FnXz-8" edge="1">
          <mxGeometry relative="1" as="geometry" />
        </mxCell>
        <mxCell id="JNHqikHPYWaPrXhBGyIR-2" value="Event Queue" style="aspect=fixed;html=1;points=[];align=center;image;fontSize=12;image=img/lib/azure2/general/Storage_Queue.svg;" vertex="1" parent="1cqTLkAXftHqGeJ1FnXz-15">
          <mxGeometry x="228.5" y="236" width="34" height="27.63" as="geometry" />
        </mxCell>
        <mxCell id="1cqTLkAXftHqGeJ1FnXz-16" value="" style="group" parent="1" vertex="1" connectable="0">
          <mxGeometry x="50" y="140" width="300" height="280" as="geometry" />
        </mxCell>
        <mxCell id="1cqTLkAXftHqGeJ1FnXz-3" value="Client" style="verticalAlign=top;align=left;spacingTop=8;spacingLeft=2;spacingRight=12;shape=cube;size=10;direction=south;fontStyle=4;html=1;" parent="1cqTLkAXftHqGeJ1FnXz-16" vertex="1">
          <mxGeometry width="300" height="280" as="geometry" />
        </mxCell>
        <mxCell id="1cqTLkAXftHqGeJ1FnXz-6" value="" style="shape=image;verticalLabelPosition=bottom;labelBackgroundColor=default;verticalAlign=top;aspect=fixed;imageAspect=0;image=data:image/png,iVBORw0KGgoAAAANSUhEUgAAAd0AAAGSCAYAAACmMxvXAAAgAElEQVR4nO3de3hU9YE38O/JzCQBkkACkZAJEtAACS5EKOClkChog+DS4GXBrd0+qeCzoutaX2vhdb2tD9hFtnWV9hVdtkgLKFZMFaUlKEi7Fag0YCFcNFxMwmBCCAmBJDOT8/4xcyZnzpxz5sxk5sxM8v08zzwzc66/CTrf+d3OEURRFEFERERRlxTrAhAREfUXDF0iIiKTMHSJiIhMYjX7hOxCJiKieCEIgqnni1roMlyJiCjeaWVVtMI4oqFrNGgZyEREFGt6wSrPqUgGsBCJKUNah2C4EhFRotEK2UiEb69CV21XvcMxhImIKN7ohanaut6Eb9ihq9wtWAAzcImIKF7Jg9RI0IYbvGH16eqFqdY6IyFNRERkBqOhKW0nZZb8fTjBG3JNN1ioGl2m9Z6IiCha9Gqs0mujy9SOF/T8oYSu0cAVRVF1md4xiIiIzKAXqvJnrXV6r4Mx3LysF7haYasVvqztEhGR2dRquXphq9aErLYulKZmQ6EbSuBqPdS2Vx6PiIgomoLVaJUP+X56/bpGgzdo6AYL3HAfymMyfImIKFq0mohDfSiPF2rwhj16We/R3d3t9yxfLt8fgG8ZERFRtCUlee7zIw/RpKQkv2CV3kvbagln9HLIfbpaTcrKoO3u7vYLXem9cj/27xIRUbRo9eMqQ1cevKIoIikpyfesDGBlU3PE+nT1mn7l65RBq/ZeGcDyfdWOS0RE1FvKMJRCVP66u7vbF7xSuEqBK20nbaMVstKyYAGsGbpaQatWu1ULWLfbrbpM7Tha4c4AJiKiUGmNONbqo7VYLH6hm5SUBIvF4ncMqeYrha/e+fSCN6SBVPJlyiZmtbB1u92+h1qTs7Lmq3dOIiKiUGjVcpX9t1JIWiwWv7CVZ5G8FqscxSzfPmIDqdRqpVrNyVLQKl8Ha25Wno+IiCgcauEnD11lzVZeexVF0Re+0vbynJI3M+udT41q6AYLPLWaqrIZWfmQ14KlZmZ5WOudmwFMRETBBLtRgXJQlNSsLD1LmaYMXHnztDz79IJWa73hi2MYmSakVsN1u91wuVwB67SmEsmfiYiIwqWcm6tsXpb6Z7u7uwP6cAVB8FUQ5aOa9WbfROTiGHq0Ri4rA1cKXZfLpVozlo7FubtERBQpWnNypYe8j1YtQNXCOZy5uXKGpgzJ32vVctXCV17DPX78eK8KSkRE/t5///2on+POO++M+Tlz77svYscWAbi9D7m0v/zFr2Ys5ZgUtlLgqtV05UEc8pQhI027aqOXlU3M8qZkl8sV9JhERESx4nK5fDVbt9sdMOBKLfeCUQvgiNzwQDlvV1nTZXMxERHFM/kgX6l2q7wehTJs5aFqZLoQAOhfWBLag5v0Ri/Lm5ulWi8REVG8UrumhNY0V60LORmp/QYNXa0DqyW+XggTERHFK6Mhq3bNilBohq7WgfRqvFLB1T4AERFRNNgyM4OuD7aNWmap3aRHzmhOyoV9az+1gsiDV20eLhER9V3/9m//hsLCwpD22bJlCwBg69atIZ8vKTUVacXFmLB7N86uXIlTzz4bsI0tMxOTPvkEAHDwllvgvHBB9Vh6t6KVnntTw/WVOay9VE4Y7MIZRETUt4UauABwzz334J577gnrfFLgJicnY9QzzyBfEbpS4A6aNAmDJk3yha8atQFTodZwjQg7dJUFkBdYWsbAJSKiaLlUXY3WTz/1vZcHrzxwJXUvv6x7PL0c603QyoV8E3u1Qmptq6yeExFR/3CfgQtabNy4sVfn6O7oQM2dd6Lw/fcxbPZsAJ7gTUpNRVZZmV/gHquogON//kfzWEZyS6sSaXS6EBDm6GW991od0ERERJEmBW9TVZVv2cgnnwwpcAH1SxGr1XB729QccvOy2gmUy9ikTEREZlELXomRwFU9poH7vIdToYzYQCq97RjCREQUTZYBAzAgOztgeeqoUYb2D6XfNuYDqYiIiGJFbdCURG1UcywxdImIKGGpBe6xigq/puZ4Ct5e3U83GA6gIiIyX3l5eVhzX59//nkcPXo0ImXo7chkI7QC1/E//4NvNm0KGNUMQPUCGnLRzi3WdImIKCJqampC3mfLli2+q1KFasC4cUiR9dnKB02pDa4adPPNSEpNDetckRLVmi4REfUff/vb30K+KlU4l3+UtH72Gb6YMwd/99FH+OpHPwoYpSyfxwsANXfeie6OjrDPFwkMXSKiPmbr1q29CrNEOm/rZ59h35gx2tdU9gav9DrWGLpERJTQtAJXEg9hK2GfLhERkUkYukRERCZh6BIREZlEEBWTkpQ36JXf2kj+cLlccLvdcDqdcLlccDqdcDqd6OrqQldXl++19HwhSJs7ERFRrGRmZiI5ORk2m83vWXpts9lgtVphs9lgsVhgtVqRlJTk9xAEwXe3IeWzhDVdIiIikzB0iYiITMLQJSIiMglDl4iIyCQMXSIiIpMwdImIiEzC0CUiIjJJv7n28rx582JdBCIiMuCDDz6IdRGihjVdIiIikzB0iYiITMLQJSIiMglDl4iIyCT9ZiAVERElrvfff7/Xx7Db7Zg8eXIEShM+1nSJiIhMkpChe/r06VgXgYiIKGQJF7qnT5/Gzp07Y10MIiKikCVUn25DQwN27twJl8sVvZO0ncDu3cfQBgBIx7iSEhSkR+90pMLv3yAXU+ZNxoho7kdEce/OO++MdREiImFC98KFC9i+fXt0AzeS2tpw1uHA2YYGNKSPxbzJIXz992bfPqD1XL03OAHkjjAcnOHuR0RkloQI3QsXLmDr1q2JE7gAzp7Yjc8bvG9CrCn3Zt/EdxZfHb3kfZ2OcQVGozPc/YiIzBP3fbrt7e0JF7jUC2fPol56nTvWeNN+uPsREZkorkO3vb0d7733HgO332jDieMNvne5I4zWVsPdj4jIXHHbvCwFbnt7ewxLkY60dKDp6wM4XNuANqnDMD0XhUWFuCZ7QM+mfoN4FBo+xwcNimXp41BSUuBpPe7Nvsr9c6dg3uQ0NH19wq/MAwYNQub4b2HyCPUqYHvTGRw7fBJtbW2ycqQjPTcPE0dnITMzU3W/HmdxYPfnaGgD0nMLMXnyNaG3jJ89gWO+v/E4GG9ZDnM/IiKTxWXout1ufPTRRzEOXI8ze/eisbHRf2FbA2r2NuDilHmIvzFOl3Bi9+c9IeR1pb0dVz7fjbZxJSjxa3ttw4nduwO2l9a1NdTgTw3BR3GfPeAJXABoa6jBgfSrFOcJ7uzZnl8X6bk5hkM73P2IiMwWd6HrdruxdetWNDc3x7ooABqgzFu/tcdPoGBEQXx9yTccwzGd1W3HDuBETk+Anj2gFbihaMMlxTHaGhxoK0g3/rdpO4GeFuJcjDUa2OHuR0QJpa9cBjLuQvfDDz+Mk8CVSR+HKZMLMCIdaP1yFz6VRsm2teESvAOM0wtQMq/At8vZAx/0jEDOnaI/7ac3+2odUtbE2/T1ARw+2OBtNm7DsRNnUTB5BALCUnmutja0d17AscMng50NaemAvH081Brn2RM9zevp4woMT/cJdz8ioliIu4FU3/72t2G1xtFvgdwpKCnxBC4AZAy3y8IksIYXD9LHlaBE1qeaffUUjM2VbdB2SaP/+DgOnDjbsy49HQOHjsT1M2cGHQ08YvIU5Hq3Sc8txOSQapxn4fDVVtORm2O4YTnM/YiIYiOO0s0jMzMT5eXlcTJNyDPf0++rPD0NGYB6aMWFwPARRRGDMtKABmUNPR0FY3NxzFetbkPDsc/RcMw78CpvPApyRiDdUJaNwOSSeQin4ab1y2NhTfcJdz8ioliJu9AFPMFbVlaWWFeginMZgzIAXApcMWIybpgEWfOzx5X2dlzxBnDYo5ENacO5+nAuahHufkSUiPrKZSDjrnlZkpubi1mzZsVXU3MCa21v1VyXffUUlMybh5KSKRgzZkxAuLY11GD37hPRqd37TffJhfGW5TD3IyKKobhOtFGjRmHWrFn4/e9/H+uiJDh5rRAB1yUWRREAkJ4+AkVFI4CiIqDtBA4cOOabBoS2BjjaCnSamsOZp6u4qMVYoyPBw91PfgjZ50vPxZTJk6ExhTly+/bmnETUJ8RtTVcyatQo3HLLLbEuRsgGZaT1vGk4jq8ar5iyr5wgCJ4vesU83J4rNrXh9IHdOHDiLC5cuOBfk03PwVBjnbkAVObpnjBQL25z9IR6KBe1CHe/ngPghOIHxecHjNbkw923N+ckor4irmu6koICz3SaTz75JMYlMc6/D7UNNXt3oka+gfKqUhHaF2jDsd0faM/VVYRUV1sbGho8fbe6dJtww5un6zfdJ5SLYYS5X0/hZKHtWyab/hWNfXtzTiLqM+K+pispKCjATTfdFOtiGDeiAOPC/Tbtzb56dMNab79cTJmst593nq7fLkHCMJYXw0jP8U1v6lmWjjTVjSO0b2/OSUR9RsKELgBcd911+Na3vhXrYhiUjoKSEtwwKdfglJtI7Rt4rMzMTBROn4V5AYGbjoLJnvMMGDQoYE9pv5KS4H2Poc7Tje09c9NRMHlcTwgG/VERiX17c04i6isEURpF4yW9lT+Looju7m6/h8vlgtvthtPphMvlgtPphNPpRFdXF7q6unyvpecLFy5ErNAHDhwI+VJe8+bNi9j5jZL+hoIgRHdfvxsmqF8nWRRF1WMFO4/Wfr1zFn/94HPvHNvg13Xu/X5ElEg++OCDgGXRvgxkZmYmkpOTYbPZ/J6l1zabDVarFTabDRaLBVarFUlJSX4PQRB835fKZ0lC9OkqxframUb1JqwiHXRaxwt2nsgHLnjPXCLqtxKqeZn6At4zl4j6r4Ss6VIiS0dByTwUBN8wQvsREcUPhi4REcW9vnIZSIZuX6C4NSAREcUn9ukSERGZhKFLRERkEoYuERGRSfpNn67aZGsiIiIzsaZLRERkEoYuERGRSRi6REREJmHoEhERmYShS0REZBKGLhERkUkYukRERCZh6BIREZmEoUtERGQShi4REZFJGLpEREQmYegSERGZhKFLRERkEoYuERGRSRi6REREJmHoEhERmcS0m9gvWrTIrFMRERGFZPv27aachzVdIiIikzB0iYiITMLQJSIiMglDl4iIyCQMXSIiIpMwdImIiEzC0CUiIjIJQ5eIiMgkDF0iIiKTMHSJiIhMwtAlIiIyCUOXiIjIJAxdIiIikzB0iYiITMLQJSIiMglDl4iIyCQMXSIiIpMwdImIiEzC0CUiIjKJNdYFiKbOzk60trais7MTAOB0OuF0OmNcKqLEZ7VakZycDABITk5GWloaBg4cGONSEcW/Phm6Fy9eRHNzMwOWKEpcLhdcLhcA4PLly2hpaYHVasWQIUOQmZkJQRBiXEKi+NSnQrezsxMOh8NXsyUi87hcLjQ1NaGlpQVXXXUV0tLSYl0korjTZ/p029racObMGQYuUYy5XC40NDTgwoULsS4KUdzpE6Hb1taGs2fPQhTFWBeFiLwaGxvR3Nwc62IQxZWED90rV67A4XDEuhhEpKKpqQmXLl2KdTGI4kZCh64oivjmm29YwyWKY9988w26u7tjXQyiuJDQodvS0sI+XKI453K5cP78+VgXgyguJHTocqAGUWJoaWlhbZcICRy6ly9f9s0TJKL4Jooi2traYl0MophL2NDl4AyixNLe3h7rIhDFXMKGbldXV6yLQEQh4PgLogQOXV7ikSixsDuIKIFD1+12x7oIRBQCTu0jSuDQ5UhIIiJKNAkbukRERImGoUtERGQShi4REZFJGLpEREQmYegSERGZhKFLRERkEmusC9CfjBs3TnPdxx9/DLvdHpNzHzt2LGrnJSKiHqzpEhERmYShS0REZBKGLhERkUkYukRERCZh6BIREZmEoUtERGQSThmKQ/X19di7dy/q6+vR0NCAxsZGTJo0CampqbjjjjuiOrXIiM7OTuzZswc1NTVoaGhAXV0dAOCaa67B0KFDYbfbMXfuXKSkpAAA7r//fs1jbdiwwfdab1pTpBUWFuK9994LaZ8jR4/iT3v2oLq6Gq2trb7lGRkZGD9+PGbOnIlJkyZFuqhE1IcwdONEZ2cn3n33Xbz66quor68PWL9nzx4AwEsvvYRp06ahvLzcL9jM0NTUhE2bNmHjxo1obm4OWL9v3z7f61WrVuHuu+/GwoUL/ZbHg5SUFKx48UVD23Z2dmLz5s1Yv3696r+LpKqqCq+++iqysrJQUVGBxYsXR6q4vh85Bw8eRHV1NQDg4MGD6Ozs9G3DudZEiYGhGyf+8R//UTXI1Ozbtw/79u3DqlWr8Oijj2LhwoVRLh2wfv16rFixwvD2zc3NWLt2LdauXRvFUoVn8eLFKBo/Puh2VVVVWLFihW7YKjU3N+Oll15CVVUVnnnuOUPn0VJfX49XX30V27Zt8wtYIkpcDN04YTRwlfs888wzqK2txfLly6NQKk8ta9myZdi2bVtUjm+2wsJCLFmyJOh2K1aswPr168M+T3V1Ncrnz8eSJUvw8MMPh9Qi0dnZidWrV2Pz5s0MW6I+hqHbB6xfvx5NTU1YuXJlRJubOzs78f3vf9/XpJnopGblYH+jpUuXoqqqKiLnXLt2Lfbs2YM333wTGRkZQbdvbW3F4sWL+8zfnIj8cfRyH7Ft2zYsXbo0osdcuXJln/ryN9KsvGLFiogFrqSmpgY/+tGPgtZam5qa8N3vfrdP/c2JyB9Dtw/Zs2dPxJqB3333XWzatCkix4oHRpqV33333V41KevZs2cPXn31Vc31nZ2dWLp0aUj9x0SUeNi8HMfsdjuKi4uRkZGB6upq1NTUBN3nhRdewOzZs3vVzNzU1IRnn3026HYpKSmYNGkSiouLkZycjIMHD+Lw4cNh9U8D/tOHQrF582bdHxtGmpU7OzuxatUqQ+crLCxEcXExhg4divPnzxv+t1m/fj0WLlyoOuXr2WefZQ2XqB9g6MahGTNm4MUXX8SwYcP8lre2tmLlypV49913Nfdtbm7G6tWrezWwauvWrUGbQv/pn/4Jjz/+uGqQvf7663jllVdCHgQ0bdq0kLYHgNra2qDNwUaalTdv3hz0x8KYMWPw4osvqs7Fra2txbJly3SDs7OzEytWrMCaNWv8lh85elT331R+/sLCQhQWFnI+MFGCYujGmZUrV2LBggWq6zIyMrBy5UrMmTMHTz75pGZIbN68GQsXLsSYMWNCPn9nZyfWrVunuT4lJQX/+Z//idmzZ2tus3jxYsyaNSukaVDhWrZsmW64Gx2tHKxZedGiRVi2bJlmbXnMmDF466238Morr+g2I1dVVaGpqcnvB9WaV17RPXdKSgoeeeSRiM79JaLYYJ9uHFmwYIFm4MrNnDkTTzzxhOZ66WIK4aiqqtINysWLF+sGrmTMmDH493//97DKYNTrr7+uW7M0Olr54MGDun2pxcXFePbZZw012T/yyCOYO3eu7jaffvqp73V9fb1uTT0lJQUbNmxg4BL1EQzdOJGVlYVly5YZ3n7BggWYMWOG5vpwQ/fo0aOa68aMGWOo1iiZPXu2oR8R4aitrcUrQWqIoVwEQ4tUsw/Fs88+i6ysLM31O3fu9L0O9u+0ePFiNiUT9SEM3Thx5513GprHKVdeXq65rra2Nqxy6NX47rjjjpAHaM2aNSuscgQTqWZlALqDoKZNmxbyta4zMjJQWlqquV7+b6MXuqF8BiJKDAzdODE+jMsFFhYWaq4Ld+qJ3n5654vkPsFEqllZ0tTUpLku3PLr/Xu2tLT4Xuv9OJoxY4ap19Ymouhj6JpI7wt0fFFRyMcLZ6BUMI2NjZrrwgmgSN8RKZLNypJz585prgvnxxCg/7eS95nLA1iJzcpEfQ9D10TKKUByTd98E/Lx5LeXixS9HwZ6NUItkSxjZ2dn0Cs7hdrvDABDhgzRXNfQ0BDSsSR6P17k9AatReNHFRHFFkPXRHq1vnBuzaY36ElvII8evTKGc/EGvTKGau3atUEvQvFiCM3KEr0fQ+FesOLgwYOa64zW/tm0TNT3MHRNdM0112iu27t3b8jH0/tiHz58eMjHA4C8vDzNdeHcF1evjKE4cvQoXn/9dd1tlixZElaTrN5nPnDgQFh3+tH7W4U6YI6I+g6GrokmTpyouW7Pnj1+8zeDqa+v1+3bDOfqToB+LayqqiqiZTSqs7MTy3/yk6DNyg8//HBYx586darmOukKX6FYv369bo08WiO6iSj+MXRNFOyiEk8++aThPtCfBAkhIxewUFNeXq7brGm0jEb6X42KVrOyJNi1qtevX2/4x8aRo0eDhvTMmTNDKh8R9R0MXRNlZGToXtCiubkZ3/nOd3SbJmtra/EP//APutvY7fawR74OGzZMN7ClMuqFUG1tbcTuwxvNZmVJsH8XwDMievXq1bo/Il5//XUsvPfeoPOHOSqZqP/itZdN9txzz2HOnDmaX8zNzc24//77sWjRIowfPx6FhYVIT09HTU0NDh48iM2bNwetPfam1gcADyxZonvXnubmZixevBhz5871C5Ha2lrU1tYaKqMRRpqVs7KyMHXq1LD6m+VN8EsfeQR79uzRPdfatWuxbds2lJeXo7CwEBkZGWhtbUVNTQ0+/PBDQxckCbcJnIj6Boauyex2O5YvX45nnnlGd7tw72W7aNGisPtzJUXjx2Pu3LlB7827bdu2iN2/V42RZmXpB0A45CPGi8aPx8KFC4Pe+KC+vl73hgZ6CgsLw272J6K+gc3LMbBw4cJeB6OarKws/OhHP4rIsVauXBnTeaJGmpUj7fHHH0dxcXFUjp2VlRVwSz8i6n8YujHS2yZgNT/96U8jNh0lJSUFa9asiclcUSPNytGQkpKC119/PeJX0UpJScHLL78c8eMSUeJh6MaI3W7Hhg0bwr6IhVxKSgpWrlwZ8VGxY8aMiVgZQ2GkWTlaMjIy8Pbbb0esxpuVlYU33ngjKi0bRJR4GLoxNGnSJLzzzju9uilAVlYWNmzYELVb6E2aNAnvv/++aaERi2ZlpWHDhuHNN9/EokWLenWc4uJivPPOOwxcIvJh6MaY3W7He++9h5UrV4ZUo8zKysLDDz+MXbt2RX0KyrBhw7Bhw4aQ+3mlQWNGxapZWU1KSgqeffZZbK2sDDk07XY71qxZg7feeotNykTkh6OX48SCBQuwYMECVFVVYefOndi1a1fAxfBTUlIwe/ZszJo1K+gFHaJZxk8//RRvvfUWWltbcfDgQb+QLCwshN1uR3l5uW+k7ooVKwwdP5bNylqKxo/Hhg0bUFtbi507d2Lbtm2qZbTb7Zg9ezZmz57Nmi0RaRJEURTlC6S38mdRFNHd3e33cLlccLvdcDqdcLlccDqdcDqd6OrqQldXl++19FxWVhbRgh8/fjyixyOi6Bs7dmysi0Ckavv27UhOTobNZvN7ll7bbDZYrVbYbDZYLBZYrVYkJSX5PQRBgCAIABDwLGHzMhERkUkYukRERCZh6BIREZmEoUtERGQShi4REZFJGLpEREQmYegSERGZhKFLRERkEoYuERGRSRi6REREJmHoEhERmYShS0REZBKGLhERkUn6za39flb+ZqyLQNQnPbb1+7EuAlHCYE2XiIjIJAxdIiIikzB0iYiITMLQJSIiMglDl4iIyCQMXSIiIpMwdImIiEzSb+bpEhGF4+s9QqyLQBpGzhBjXYSQsaZLRERkEoYuERGRSRi6REREJmHoEhERmYShS0REZBKOXjZkIh48fC+KVdY4Th7Ghz/ehP1HzC6TSYomYv7SW1Bcmo0cadmpRjR9eRC/e21X3/3cRERRwNANSSMcuxrh8L7LubYQOaMnoGLLC5i8/Cm8VhnTwkWc/fFH8VRFtu+941QjACAnPxvD8mejYnYuMGEj9seqgCQzHPO3PYKy/EZsv+dlVPLHEFFcYuiGpBEfLvUPGSmYilfch6mVfSiA5t/nC9zq5a/gtcpzfqv/rmgc5jx3dSxKRkSUsNin20v1qz9BNQAgG7lFMS5MxEzEgys8H6Z6+VMBgQsAXxw5hv+4Z0ff+ZFBRGQC1nR77RwcpwDkq6wqGo6pSxfiDll/qOPkYVT/eJOi+U9qGlQ7vn9z4dXzb8OcBwpRPOYq3xaa/cpFt+GZLSXAulfw3EcT8eCqEhTnAzi1G+vm6gTm/Os8/denduODEJvMwy/fcMxfegvKSj216+4zNfjV47/x7FM0EQ+uutdTdgBNVVX4f4/uQr3WsVYD89cs9B0LaET18s2qPx4iXeY/PP4bzabdq+ffhjlLSnyfA2jEp5uq8OkLh7U/i4FzTF3zAipKpXfZKNvyAsq876pl3R5q53fs+gRvLD3kf34iihqGbm8VTfR+iTWiQf5lO/82PLOiBDnwBu1pAbh6GIrHTEDZlkcBv363c/jLx0eQM0Z+4GzkyAcvwdOUvczb5OvYdcTTt5xfhOJg/cpjZuGZLUWestSJyMnPVtmox9TbPbVcx8ehfRn3vnyNqN51xLNPfiEqttyH3HVAWUURcKoR1bsaPf3os2fjqW02vDB3R2D5xszCM4c9x/KUIRvFpdkoXvEInrn2FTy32j94I1bmq4eheEyhyr+t8jw94wJySoswc9EizLxxt/ZnMXCOc3/YjWpkI6fU+2/s/RyXk1tw9IT3WPPvw7IVRX7nx9XDUJw/XOXDEVG0MHR7o8hTe8wB4Fi3U1FzzIa1qgrrFCN8pT7gsqUTUbn0kG95/eqNeA2K7UoB7PrE8+Xq62M9gnX3bPQ/5vz78NSKIs1+5ZzSIuCUxhd7gOHI9daEHF+q1wxV9bZ8u97GC74al1TzL0JZBeBYJw9L70jy/CJ8q2gH6o8EO5anbL9cUYScilmYulp2/oiWWfvfFkW34YGKbJV/g+GYuuYRVJSWYN78HQHhbvQcZyp34LXK4Zi/rQhl+Y2oXrMxsCVliSdwE36Q1Td79NcPygMGjTanLE9J3YsAACAASURBVERhYOiGpAgVh19Ahd8yjabLyo34N5UaUv1HR+CoKPGrwQaexvsljSNY5/1ilWqf1cs3BjR51lduxLrbX0BFaREmzwf2B5z3CNYZCtzw9ap8p3b7hyTO4S8fN6KsIhvY9baidnoIH6y7BcUV2cgpAKAMkIBjAajcie1LilCW73/+yJZZ9m+bPxx2wLdu6lLPv3f1WuW/wTnsX7Mbd5SWoPj2iUDlIb+1oZyjT/pmD+CoAhr/CLHxz4C70/i+A/MgZFwLpF8LMXsGhKtuDi2Mu1ognngt+HZEIWLohkTWNJdfhOJ8oPtMExwndGqERcNxdcFEzLldatLN1g9cDMd8b+25erlUw5Jqn41wnFDfq6G2ESjNRs61wwEoyrPrb1Ee8NTL8p06FxAe9V82AsiGo1b7b2v0WMA5NHj73Xv2iXyZceScp9nYb2FPy0HO7ffhwduVO3n/e1ALUcPnCOYcKtceQdmKIpRteRTFuz7BG2sOBbQSxNyFaoiNf4Tw9dbQQ1bpch3Ey3WAYxdw4g2IAJA8GEJuGcTcOyDY5wHJQ7T3d3cA1csBADm2JJwf1g2nLfziEEkYuiHxnzIkNUGWbbkPDQHzVYcrBvMYNH+WZ0DVrrdlzY3DkaPWb6wiZ4xKQIRELaCCMbN84ZECtIf5ZZb6XGOiciNWwjuQqvRePFV6r/9gtVhxd0D86g3g8Crgch0AQPVmbcmDIWRdD6RfC6T2/BXFYTdBsA7sed9yEEJHI9DyBeC8CLH5r0DXRc/KrosQT70FnHoLIgAhpxTiyHII+d8LDOABORAKHoB44g1YnUDmhSR8c1V3ZD879UsM3V6olzVb3vH4cOyXNYNOXfMIykrhGSn8xI6eLzbvyFT1L19pqk5Ps7KHNELaOy1J50tSr2ZolK+Gd+tE2FcbaZY2t3zhyB2j/PFjdplj35/q6fvd4RtVX1FaiIotjyI3FuVSCVslIacUYs7tELJvAq6aob6N8r1iO9/6C9XA11shfvWrnnB37AIcuyAe+DGEMfcDE37i3wQ95WWgfjtwuQ7JHcDgiwIuDk68+7dSfGHo9kpPs51/QPU0XW6XB24QU9d4LjXZ06zcc54Gb0Co9mNiOL51q3cEbiiDnzT09BuqD/AJZG75Qqc2OMysMgc7TwwcOYf9S19Gg3dQlqnlChK2QsEDEPMWQMj9jud9pM6bWQxkFkOY+BzQfhJi/Ta4v/oNLM37AHcnxBNvACfegDtrGizX/QTCyPmAJRXCzb+GuMMzHyv9ooDLA8Wwm5k7uq5F3TfBLygzIKUTg1IvIzWlDanJX4Z3MoX6xpvR2JKO1vZkbPvzIADA3BvbkZrshj27BUMHnwt6rvrGm3GlMyVged5VZzT3DWefvo6h21u+2q6RgBruG1QTYP59nrmWfs3KPfb/4QgqSr2jaU8oR9p6m6TDmFer6sgOfLirBBWlQPGKR/EgVAaKFU3Eg6uuw4EnPGUxtXx6Su/FL9fAf8SvxvnNKrPvPEtug70ysOXg6vm3YfgJ4z/O1OmF+0Q8uK3n30oSWPuPPtcfbvEEnYJQ8ICvphmxoNUyaDSEsQ/DOvZh4IoD4tfv+H4EWJr3AZ8ugEsWvm2DRaRf9JRqaFMSHCPCa2bu6EzH6++HNkWrcNRkFBe0Ij/nHIak/zXkc35Zdyv+eGgYak5bAtZJ4QtkALgai2Zfi+KC7ZrH+qp+qGyfHv9ydyfs2eoBuq9mBD47HPgrRW+fvo6h22s9I217RqD2LPMMXGmEQ2XebQ9pSgfgwHV4cM11fmsdf9iIStlo2ootL+AO+ZxSWa06UqNZ9y99BVizEBXeOa6/XOF/7WWPnutQw+TyaTrVCEfpvXjq8C2o3tXondvquehFwOhhs8rsO08JnjpcAsfJw3CcFgDvHGIAqF7e29Dt6RYoXvEoHrzd89nxxn95fsTlez+jdG7pM5rxQ0jGar8doix05WEbEwNyIIx9GBj7MMSTvwaq/29A+F4eKGLAZQFWJ2B1mtvMXHPagprTmQAyMffGkZhWdMRwDfH3+8rx8eephs+1qSoTJ8/ejdum1iBtwGHD+9U3DoFd5ffbpSsTVAMXgGrtt79g6EZA/epPUF1xL4pLb8H8okOoPALUr34ZL+A+PFBR5Atbx8nD+MWPD+CmLfcr7lgkDepRH2zjqB2OSpzD/qVPoWH+fXjgoULZdo1oqorGHX88TZDnZFdr8oWtxl2GzC2fhlOf4LkngAd/WoriUs8PGb0BQ2aV2e88oycgZ7TnPI6Th/Hujw/giwicp371y1g35lHPD6VSz5Sz7ScA4BBeuwfeK1vJzh2Lq1FNfA7CyHKILX8LfRpPlAmjvweM/l5A+A5HElyy7OhtM3O4tv15EGobJuPuW1KChmKogSv57LANFy9NwA/uCDz+la7A2jIA/HZ3BqapXAL363O5IZ+/PxBEUfT7ySa9lT+Looju7m6/h8vlgtvthtPphMvlgtPphNPpRFdXF7q6unyvpeeysrLAs/fC8ePHQ9r+Z+VvRvT8FGekAWq73sY/Lz0UfHuKmMe2ft/wtmPHjo1iSSJLHr5KLhtCbmZuabseK389vtflKhzlxg/ueFtz/afVf6/aDAwAN0xwYmhGFwBobgMAd5W0YlrRNr9lT/5ykeb2/3L3Gdiz/+S3bOund2vWdBffeQ7X5n2seTyjRs6IXIvD9u3bkZycDJvN5vcsvbbZbLBarbDZbLBYLLBarUhKSvJ7CIIAQfB0RSifJazpEhHJea96JbSdAK75AcQvXgjYJJLNzD/9500ByxpbpuFkQzZ+uzsjYF3NaQv2HZkbEIrSfmphesMEJ265/iu/fuGZxZ6BTv/1TuDgrt/uzsDYkdcb7kdubEn3a2LWa1ru7xi6RNTvicdfBQ78OKQLcqRHsW83e8g+ZA8B7NnaoVg0ekJAM/OB4/aAbQtHuVE+8x3V89iz/4R/uRuq5zjlGI7idGPlrT6RgeKCnvcXL/nPe75hgtMvhC9dSTZ24D6It/YjIgKCBm5XqufRNlhE22AR58IcxRwKe/afsPhO9SlrX9aN9Ht/6coE1X7c26bq99rbs/+EuTe2ByzfVJWpu598n5rTFjS2TPO9/9vJq/y2HX/1Rb/3re39N3RZ06W+4cgOPDdhR6xLQQlKGPswxAEjIVw4AAAQLQM9F+UA8PWxmbEsGq7N+xiFo+4NmPZz8myaX+3ScT5wOlLhKHdAX6uawnwHtv35moDlLW3aTczX2M8D6GnKbmoZjOwhnvnI8vCfe2M7bFZ30DL0FwxdIiLAc0GMkfM9r+UrjsWkOH6mF11Azelhfss+O2zDnBuu9U0hamhKC9ivKD+wBqsme8g+AIGh23QxE0PSPeErN/fGdgxOawHQ0yx99MxgFOYD5y/6h/819vP9eoqQEpuXiYji3LAhF1WXd3T2dLqqDaDKyrhi+Bw3THAGLNPre00bcNhvn88O29DRdS3qG/37c4cOjs2lX+MVQ5eIKM7ZLIGBCHhqonoGp10yfA5pKpFcsL7X0SP8j3/+4nAcOdUT/rdO6VC9mMf51v7bp8vQJSKKc8Gm7iibfyVaYR0p9uxmv/f7akb49T1fN/obAMCwwRf8tuvP04kYukREhNxhxmvFEk9fcA9lmLJpORBDl4iIdOk1Y99V0qq6XKtpub9j6BIREZwu9WsrB2PPblFdLjUtkz+GLhFRnOvoulZ1+YAUzwU9rNbAQVChamwZENZ+Wk3IwZqWtT5TX8fQJSKKc/KpQXKDUi8DgOZdh4KNbg4mNTn4RS1Sk78MmG50wwRn0KZlrc/U1zF0iYji3Nnzw1SXBxvVHEqTcW1D4CUkteb5KgddKS/zqHxPPfrNFalCuf0YEVE8OXpmcMCyW6d0+L2fe2N7wAUyznyThsL84Mfv6Lo24DKTQM88X7WrXcmNHN6AuTcO8HsvF4nm776i34QuEVEiqm+8WXVeq3Kgkqf26R+6H3+eipLia4M29dZ9E3iXISBwSpCWtAGHMbNYvYlbWg9MNHSsvo7Ny0REcerSlQnYsV/9dn3KGxnkDFUfuHT0dPABS388FNh8rTUVKFLaOwZG9fjxqt/UdH9W/masi0DUJ7HrJjrqG2/Gjv121Wbfb09sCljmuRZyYUCteFNVJrKH3Kx5t6F9R+aqnmPsyAaVrSOnv94Eod+ELhHFRpK7HQM66iB0ngQO/QZo+QJwXoTY+GfPPWyTBwPf+i8Io78X66LGhPwSju0dA9HaPhBHzwzWvFTirVM6cG3ex6rrphWexWeHA5uK/+udq7Fodjrs2c2+S0O2dwzEvpoRqueZe2N70EFaFB6GLhFFjCAIGHT+I1x1YRMAwNLs3ycoqu3UdRHYuwTop6G78tfjDW9765QOfGfaVs31nhvSD1W945DnpvTBpxAVjnJjWtERv2VqI5spPAxdIooYURQx4NJfA8I2gCUFQvaNQOpwIL0AyJltTgET2F0lrZhWtC3odjOLf4crXeV+N5I3qnCUG3ffcjhg4JVa8zOFh6FLRBHVkvsDDLlQ6anBKggj5wNTfwEMyIlByRLTrVM6MHlsveGRxAC8teHQgvfWKR24+e+Oa15oQ066ElZv6N2rty9j6BJRRDmtI3B25LMY8dVjAevEryuB859DuOYHwPjHgOQhKkeIsSsOiLXrAQBC/r2mn/7WKR3ITOuCPbsFg9NaDIWgmu9M24rrRt+Mv528Sjd8b5jgxLTCs5oDrdRIV8IKxQ0TnH79x8Hu1dtXCaIo+nWzSG/lz6Iooru72+/hcrngdrvhdDrhcrngdDrhdDrR1dWFrq4u32vpuaysLKIFP378eEjbc/QyUXRojV7OPrMSQ855/7+zpMA9eJJ/s3PyYAjjHgEK/jk+ar5dLcDRn0E8ssozwAsAkgfj3NALcCb47V87uq5F2+UsXLzUc5GLwWmXkD6wOaHvBDRyhuoogbBs374dycnJsNlsfs/Sa5vNBqvVCpvNBovFAqvViqSkJL+HIAgQBAEAAp4lrOkSUVSct/8LhrR9DFyuA9ydaLONR+YdvwS+eN5T4+26CPGLF4AjqyCMuR+Y8BNg0GjzCyqF7bFXApvErekALqjulkhSk79EajKQHYcNC/0NQ5eiYCLmb7sXZflA95ka/GrOb7BfZSv744/iqYpsONa9gudWn/Pb/8HD96JY5wzVy5/Ca5XDMX/bIygzcJk7ACrnoWjqtgxCQ/6ryD32D4C701PrdVYAM9+FcKG6J3zdnRBPvAGceAPurGmw2m8HRpYDmXr/BUTAhWrg663qYZs8GCh6EsL4R+H83/DuvkOkhqFLUZHjDcKkqwtRsWYi9i89FMZRGuHY1QiHypoDJzzPDacU663DkJPnac5xnGr028eRuK1oCat90DiczX/R178r/ul7EMr2egJ15rsQ2k8CX/0K4le/Ai7XwdK8D2LzPuCLF4CBeRDsZRCzZ0Cwz+t9/29XC8T6DyA07oFYv91TA1eypEAoeiJ++5sp4TF0KXpONcKRn42c0lswv+gQKo8E38VfIz5culG1luxxDvuXvuy/vug2PLOlBDmnduONuTtQH0axKXJEUcSlrDK4L2zy9OdergP2PwTMfNezwaDRwMTnIEx8DuLXlRDOvAXx1FuedZfrfDVgEYCQU+pZnv1tz7EzJ0NIyQIG5fU0S3+zp+fcjf8Lwe0Z8OOq/4OvP1m1F9CS4mni/rvn4qN/mfoshi5F0RF8uK4IFRXZKFt1G/7CEOx3pEEkp/J/gWs6vusJ0q8rgZO/DrgClTByPjByPoQb1kFs+D2Esx/61UhFxy7PhtIzNAJURlqvNsvUnTUN1qETIeYtgJD7nTA+HVHoGLoUPfnZwOrN2H7rIyjLL8G8+TvwWmWsC0Wx4E4a6OnfPfUwcLkOQuMe7StQWVJ7AhgALlRDbPwjhJYv4Dp/KPiFN7QMzINw1c0Qc++AkDMbVm+NVgiyG1EkMXQpys6hcu0RlK0oQvGS22CvZG23PxIEAe2DxkEoPw20nwRSRxjfObMYgndQle8Lq/0k0O6tAbcchNDRGLCbr/kZAK6a0VOWcD4AUYQwdCn6Kndi+5IilOWX4IHHD4Uwgjgbd6y5D5MVSx1/2IhK1pgTVySmBQ0a7TuOIAtUOYYrxSOGLpngHCqf2I3iLSXIqZiFqav1BkfJZSOnNBvKYS2O2uGoBKf+EFHiYeiSOY7swIe7SlBRWhTCFKIjWDfBaEATEcW/pFgXgPqP/UvfRjUAlN6C+UWxLg0RkfkYumSiQ/hgXSOAbJQtnRjrwhARmY6hS6aqX/2Jr7b7LQSOOCUi6ssYutQLE/Hg4Rfwy8OPhtBcfAivLT8CIBtlFWxjJqL+hQOpKHxFw70ji7ORUwDA6GUefVOIgm2oPmUIABxrNoZxWUkiothi6FIvnIMDQA4a4TgR2n6+KUTQuxGB+pQhwDtt6AinDRFRYmHoUviOHMJrE9Sm/mgtl++7A89N2KGx0sD+YR2XKHSRvFE6Eft0iYiITMLQJSIiMglDl4iIyCQMXSIiIpMwdImIiEzC0CUiIjJJv5ky9NjW78e6CERE1M+xpktERGQShi4REZFJGLpEREQm6Td9ui/9eHisi0DUJ/2f/+A1sImMYk2XiIjIJAxdIiIikzB0iYiITMLQJSIiMglDl4iIyCQMXSIiIpMwdImIiEzC0CUiIjIJQ5eIiMgkDF0iIiKTMHSJiIhMwtAlIiIyCUOXgPwUPP/eYKxdlhzrkiSGcP5e/BsTERi6sVcyEGvfG4y1a1KRJ6pvknd/mvFtYvSl7jv/e4PxUIkQkzIQEcU7hm6s7XKiGgDsVkwdrbJeTMLUGyye13Yr7FAPNHueZ5vq/3VGpZi65GUEUHyTzfwyEBElAIZurAlOfL4XACy4foZFZQMLRth7Xk8pVdlEtGHKdABw4/Nd0SmmrtE2XG8HsPeK5wfE9GRMF1nbJSJSYujGgb3e2mlOnkroltpQDMBR52lXVq1Fjk5CDgDUu1APjfbnKMqbYUMOPLVs6QeE6o8DIqJ+zhrrAhCA0244YEPO9GRMF53YK/QEZ97VSQDc+Osf3Li+Ihk5eUnIE4E6WUVSCj3HZ07/5SUD8Pf3JqPYV1N2o/q3nfjdm/7b+RGTUL58IOZM9/4AqO9E9dud+MVujTD3NS17atl74cQPp9tQfG8K8nZ1qJ5HrVyOvS6sXdGzvZFtQvqM+Sl4/uepwG8v4ek9VpQvsvl9xv9e1YG9pzzbPfREqu94jr2dAefs1d9L/ne4Pw1P32WB47eX8PQGd8jriSjxsKYbD0468dd6z8vc0bIva1lfaUNlh2cbZd+vLPT+uqfniznv/jQ8/Vgyiu1uOPZ2onqvEw5YUHzXQDz9C40BWXlJeL4yHXOmw7uPG7CnoPixDDx/v1rTN4DSVMyxA9jb5fmxsKsDH6mVU1IyMKBc1fVATl6I24T9GW14/uepmDMdvuPCnoIf/jwN5X8/AGt/nopieI9VJyJnekpk/14ydXuccADIucEWeHyNf1ciSmys6cYDoRv7P3Njzl2eft2tp6QvWW9/rjfQ8vS2qXdh/0kAAoD8FCy5ywLUd+L5h2S1NDEJ05en44fTU/D3pSq1MXsKcvZewfMrunr2KRmItY/ZkHPXAEx/s92vFg4A02+yAXDjo01dQT6L5/zl93q3/9dL2HpK+XcwuA3C/4w501MA+WcUk1D+i3TMsVswp0JRqxRteKhyIIq9PyDqlGUJ4+/l56QTf61PxRy7SlllP2YC/gZElLBY040TqrUeX3+u238bed+vdxvUdfu++KcvSvX0sb7d6d8sKnRj76YOOKDRN1zf6R8gQE/NVa2fVhrAJQW+3meJsIh9Ru+PBADA3iv+zbiCE7/7rRuABSNGqbQvh/r3UpKdW1nW6d73MRmNTkRRw5puvDjZ7Qkq77SgOoi+WqSveVHaRtb36+nzlX05i0nI9TbD5tyUgoduUv6u8g66Uukblge3j9CNhjoAdiDH27/sI/0oUPQla9bghG5sfduJOY/ZMOfnabh+rwtrN3X41yCNbBPhz1h3phuAxffjRk3AZ9c4lu7fS0Xdm52ovmsgiuX9+crR6BwITtRnMHTjhXfqUPF0Tw1p7y5vsMibjVW2kQ9iUn4550xP8YRPL9XXuYHpgX2UUm0M0wfhoTyX6r7FN9mA3V09C3ZfxvPwDn6absHT01P8BzIZ3SbCnzGStP5eqpT/prvR03oh9ZMTUZ/B0I0je//XO/L3JhtwWvDOffWvTUnb5FydBIy2erdR+3LW6BOVM1iDsqtNZcpPwdzpnpc5eQJy8jQuiKEyIrtu9xX8YvcVID8F0xel4ofTU/DDn1uRKyuv7ja+puzIfcZIUv176fD7d9/dxaZloj6MfbrxRLo6VV4Spo+y+Oa++jnt7ukvHZUUuI3UvKnVDxkqWVOu40y3b7FvmtJvL2HJdy8GPua3Be/bPNWJvSsv4nm9flO1bSL9GSNJ4++lS/p3915UxNNP3onf7WItl6ivYejGFTfOeqfbzL3H6nl/WvHFK00vslux5B6b6jbSxTaK701RHciUVzIA0/NVTj99ANYuS/bbJ680xTOKVh4CRqazqA0SEm14aE1awLn9aoZGtunNZ4wko3+vYGQDtuauSVfvJyeiPoHNy/FENt0mR9mfG8o2uy/jv28ajB9OT8HTlSlw1Ilw1LsAJKHY29dY/bMO7D3lHwqOOhGYPgBPVyajem83kJeEYrt3e/koYemyj2rnlpEPEirP7/I0C9st+OHPB2OuVKY8m+dCFPKQCraNEP5njCTDfy8D6vY44bjLgpw8AZybS9R3MXTjjO/LF9q1nboznotA6G2zd+VF1JcMwJJ7bLI+VzccdSK2vXRJPYz2tuPpl6yeKzLJrrD00aoOv35TrStgBZANEvLM2XXiF//a4bsalK9MfleaMrJNLz5jJBn8exniG/GNoD9miChxCaIo+n0zSW/lz6Iooru72+/hcrngdrvhdDrhcrngdDrhdDrR1dWFrq4u32vpuaysLKIFP378eEjbv/Tj4RE9P1GkTV82GD+cDlT/rNXQZSTjxf/5j3OGtx07dmwUS0IUvu3btyM5ORk2m83vWXpts9lgtVphs9lgsVhgtVqRlJTk9xAEAYLg+bWsfJawT5coHsT6TlFEZAqGLlEcyPt+CufmEvUDDF2iWJONBvddw5qI+iQOpCKKNaEbW5dexNZYl4OIoo41XSIiIpMwdImIiEzC0CUiIjIJQ5eIiMgkDF0iIiKTMHSJiIhMwtAlIiIyCUOXiIjIJP3m4hihXJSdiIgoGljTJSIiMglDl4iIyCQMXSIiIpMwdImIiEzC0CUiIjIJQ5eIiMgkDF0iIiKTMHSJiIhMwtAlIiIyCUOXiIjIJAxdIiIikzB0iYiITMLQJSIiMglDl4iIyCQJG7qCIMS6CERERCFJ2NC1WvvNrYCJiKiPSNjQtdlssS4CEYWA/88SJXDoWiyWWBeBiELA1imiBA7dtLS0WBeBiEIwaNCgWBeBKOYSOnQ5mIoocaSnp8e6CEQxl7ChKwgChgwZEutiEJEBaWlp7NMlQgKHLgBkZmaytkuUAIYOHRrrIhDFhYQOXavViuzs7FgXg4h0ZGVlISUlJdbFIIoLCR26ADBkyBBkZmbGuhhEpCItLQ3Dhg2LdTGI4kbChy4AZGdns3+XKM6kpaVhxIgRsS4GUVzpMxPnrrrqKiQnJ6OxsRGiKMa6OET9WmZmJrt+iFT0mdAFPE3NaWlpaGpqQmtra6yLQ9TvDBo0CMOGDWMfLpGGPhW6gGdwVU5ODoYOHYpLly6htbUVnZ2dsS4WUZ9ls9mQkZGB9PR0JCcnx7o4RHGtz4WuxGazITMzk4OsiIgobvSJgVRERESJgKFLRERkEoYuERGRSRi6REREJmHoEhERmYShS0REZBKGLhERkUkYukRERCZh6BIREZkkqqHLG8wTEVEiiXZusaZLRERkEoYuERGRScIO3VCq4ElJzHYiIopfoeRUb5qgQ05DtZMpl8kLz35dIiJKBPK8UoawkewzIqTQDXaCSBWKiIjIbOFkWKgZZzh0jRZG+nWQlJTke83gJSKieCbllDy71Jqce1u57HVna1JSEgRB8D1LBZAeoRaIiIjIbHr5Jc+53or4QCp5gaVCciAVERHFMymrlBmmxtSBVPITKgun9pDXgImIiOKRPK+CPaTtwxGx0ctaNVyGLhERxTu13ApW643o6GW9E2ilvrzQ8vcWiyXkghEREZnFYrEEZJf8PaCdfUp6YRy0phusKq3V2SwvMEOXiIjimcViUc0v5SBhNaE0OVuNFEYQBIiiGHBw+S+C7u5uvwJbLBZ0d3f79iMiIopXFosFVqsVFovFV+tV1nz1arlGm5oDQlcesFqC9d/Kg1cURQYvERHFNSlslYGr188bjNo2ujVdZQDrjVpWBq0ycP/yl7/A7Xaju7vb9yzVhKVturu7/c7PsCYiolApw05+oSZlXknP8lqufLnewCq18A0Wxoaal/U+mFbwAgio5SYlJcHtdvuao0VRDAheIDB8iYiIQqW8D4Da2CN5wCof4dZw9Rju05WIoqgatlJwSoHb3d3tey1t193d7QtceehKx5WeWcMlIqLeUut/VWs2VoauNABYHrxa4RtqGIdc01WbIgT0hKUUrDabDW632287qVlZXsOV12oZuEREFEnKQFSOStaq7WqFc29rvaqhqzaYSlomf1ar7VqtVrhcroBwltdypbA1GrgMYiIiCkZvSo8yeNVCVR6+giDAarUGreVqnVerLEFrusrpQlLgyj+IvLYLAFar1TeFSKrtqjUpy5uWlcHKoCUionCpDXCSNzFLz1rBq/bQC161c6rRDF2tqUPSQaXwVc7RVSuU2sApeZ+vvD9XjsFLRESh0hpR5UezUwAAAcdJREFUHKyZWerL1QpatbvpGTm/XEgXx1DWeuWFl8jXSw9RFOF2u33r5Q/5PgxZIiKKNLXmYGXlUHlFKrWRzmp9uXpNzGpCmqerd2B5E7PUnCwPXfkIZ+UAKmk/vfdERERGadV2JVpzb5WBq9WKq1XTDRa+hkcva9VylR9CWYOV9lOr3TJoiYgo2vT6d7XC1Mht/rSOryesgVR6H0Sq4UoiEbgMYyIiCkYv/EIJXsB/sJVyG63jGglfQTSQaFoBqfasF7DKsNV6TUREFEla4agWvvLXaiOVtfpxIxa6gH6fq9agKL1wDnZ8IiKiSNHrf9UaaKW1TO14RpuYDYcuEDx49Z61loVzXiIiIqVQ+lbl2+uNRtbbJpzzhhS6QPBRxnphq7Y9ERFRrOg1OyuXGXkf9Hyhhq7EaPiqrdPbj4iIKFqMDraKdNj69gs3dIHQ+mYZvEREFEuhjG7WWx5u4AK9DF0gvJCN1DmIiIgkvQlDo8fq7Tl6HbpywQ7F8CQiongTLEgjGuaRDF0Jw5WIiBJdJMNWEvJN7I1QKyiDmIiI4lU0AlZNVEJXjVkfiIiIKF4lBd+EiIiIIoGhS0REZBKGLhERkUn+P4Rc6bNz+DZOAAAAAElFTkSuQmCC;" parent="1cqTLkAXftHqGeJ1FnXz-16" vertex="1">
          <mxGeometry x="30" y="50" width="237.31" height="200" as="geometry" />
        </mxCell>
        <mxCell id="1cqTLkAXftHqGeJ1FnXz-17" value="" style="group" parent="1" vertex="1" connectable="0">
          <mxGeometry x="650" y="440" width="210" height="150" as="geometry" />
        </mxCell>
        <mxCell id="1cqTLkAXftHqGeJ1FnXz-11" value="Strava" style="verticalAlign=top;align=left;spacingTop=8;spacingLeft=2;spacingRight=12;shape=cube;size=10;direction=south;fontStyle=4;html=1;" parent="1cqTLkAXftHqGeJ1FnXz-17" vertex="1">
          <mxGeometry width="210" height="150" as="geometry" />
        </mxCell>
        <mxCell id="1cqTLkAXftHqGeJ1FnXz-14" value="" style="shape=image;verticalLabelPosition=bottom;labelBackgroundColor=default;verticalAlign=top;aspect=fixed;imageAspect=0;image=data:image/png,iVBORw0KGgoAAAANSUhEUgAAAVIAAAA/CAYAAACyyEDfAAAO60lEQVR4nO2dT2jbWB7Hv8omB5ulCWhge7BIOx1U2MLIMLMH+5As9Rz2YE+XGWhvTegchs6hZacsC2XIMLmnpT3k1mL3GJiFjn2syzYH+7CdRS70EDEzaXAOPVSQhEVmSYj2oD5FkiX7yfrjpP19INDakt6TEn31fb/f7z0JAEwQBEEQIzMx7g4QBEGcdEhICYIgIkJCShAEERESUoIgiIiQkBIEQUSEhJQgCCIiJKQEQRARISElCIKICAkpQRBEREhICYIgIkJCShAEERESUoIgiIiQkBLEe86Z7Lh7MDrHpe8kpATxntMsTGBeFMbdjZF4qExgQRp/3yfH3QGCACxncekPAuZFYGZKwJzYv82LPWBnH1D3TGwZwL90E5294ONdzaV/gy1rJhYkAbOZ0Y+xuw+ob89rZz/4HOOA9fV7WcDFdv+Kmrzn0tkDHr8OvyLnksz3O3q0beKV4f5sXrT+TmazAmrd8a4GKoDWIyXGyIIk4OZZAR+fGm3/rZ51A9/fdN9o86KAZiF9IZ1sHOJpYcL3QRCFF3vWg8N7nlH5tTRhC2WpbeKZ7paDJVngErvdA+Bc8xA7+/xtL0gCHiijH9t5nZc1E8va+KSMhvbEWDiTtW6EB8roIgoAsxngxlkBv1ycwNPCxLGJmcXNx6eOzvNhXojlPL1u83sfwby/aWL3YPixpiet/oWB143e+83sE1HmRhk3PxQwMxWq+VghISVSRzkF/DwXv2ubE4FfLk5w36Anlas5AT/PRY8Neq/TnIi+WOnOPrC8wef0wojZzbN8IYPdA0vMvXhFfxQhjxMSUiJVzmSBp8UJTCcYnV+SBfzjo+SOfxyYngQeKMLIYhoU+/Rzpfc2TWz1+PrEI2YzU8DS+fjcKGOcrpSElEiVh0qyIgpYLqbWTbaN48IDRRgp4x7k2udE4NLp/u944488YnbjrMD1N8DrRhnjdKUkpERqBDmJuLmmmnj9v+TbOS48zIcTj2GZ+DsX+o9X68bjSmemLLHlIYwbZYzLlZKQEqmxICXfxqNtc6QynJPMbMbfRQYxLIY8m4FvyCAOV5qUG2WMy5WSkBKpEWYIunsArOvWzbuuW+U/w9jqAd++fL9ElHHpNN92vHWhfmIb1ZUm7UYZ43ClVJBPpEaYIvVP1g/tesnlt6XOM1PWzXTptH+x/Rf/Pqo13Nk3sa4Pv2l5Qw27B0Bnl2/bMKzr/p+HDYFYD6nhDxHeigbmSr2F7suayVX7uSQLfUX0SbtRBhPyNOtKqSCfSI2DMv8A6NZLE/d8bibGzJR1szBhGLZ91D6t68DF9iHXtmEK8icb/secmbJilWFmZwUdi8FbAM/Y6lmF8F6cRfyDeLRt4pp69BD8tcSXaPQrrg87wWKUCQJRoKE9cSxZuSDg19IE7lywSnwUT9H+zr51w3309BD3N0cT0ePMzr6VNOMZSvMStr42aqz0au5o4kBabpSRdqyUhJQ4trBZSw8UqwD9oGzNXlqSj0p+Xhnvdlx0NyZHNer8/yixUrZ/WrFRL2nGSklIidQIigeGYU60bs5mQYD+F2u6pNetviucySLS9FnGzFR4N8qIw5XeuZCuG2Wk6UpJSInUqG3H6xynJ4+mSz4tTLxzgnrnj/wiMOghdYNzOmYQUV0pb5w3TjfKSMuVUtaeSI1a14y00tMg5kRr/v6oSadxEeQU/3o63HVS9/zPOcywOoioGXwe4najjLQy+CSkRKpcbFvLzCUhpoCVpJqe4h96jpu4FljxEyGAP8kzjCW5X0hrXRNLcjS3y1jeiN+NMm5+KOD+Zv/x44SG9kSq7OxbYhpHvDQIZzLqfSBojdI43Cgjaqx0EFs9+I4i7vpMVR2FNGKlJKRE6jAx/aoTb3mPk7Dzz08qL/aCxSwuN8qIGisNwq//C1K8IaCkY6WRLnOxWEShUPD9rtvtQlVVaJrm+70kSahUKlAUxf6s0+ngyZMnffvk83mUSiUAQLVaha4f2RlZllGpVNBsNqGqqv25KIpYXFwEANTrdfuYkiTh8uXLA89rbW0N3e7R8kG3bt0K3FZVVbTbbRiG2xIMujaMlZUV+99B/dI0DRsbG4HXMYhB7eu6jnq97rqOi4uLEEURvV4Pq6urfftUKhXIstzX7yjUuiZqXROXTluzlS6dju/Gn81Y654m+ZqOcfNiz3og+Q1Zw7jR+5vW61GGXfskYqVbPfi+JiTMK0jmxeHhhaRjpZH+bEVRtG8uL7Iso1QqoVarodVqub4rFotYWFjo20dRFCiK0rePYRh2O5IkuQSgWCxClmX0ej2XkEqS5Nu3TCYT2GfnNt5zCYKd58rKiqtfg65NUJt+28uyjHK5jE6ng2q12ifYQQxrv1Ao4Pbt23afVVXF9evXAVjX1Hn9RVFEuVwGADQaDe5zGgRzBzv71qtCHr8GAOummBeBP4sClGlEEtb8tIBOQBLmpPPTaxPXOsFxvzAF8MuadRwe8Yo7VhrkRnmPtayZmBcx8rTVuIjN+DtvsHw+j1wuBwBYWFhAt9u1HZ4kSS4R1XUd7XYbhUIBoija+7x588Z2YU43JkmSLZjZbBb5fB6AJcLZbNYWGkk6WmooyM21222X+Dn75Iemaa5jybIMWZYhiiKuXLni6+S814YH1q9MJoN8Pg9RFKEoChYXFwPbGETQ76ZUKmFtbQ0A7NEDE26nkDJn3+v10Gw2Q7fvZWbKmkY5m7Vm7zhXa3qmm3imH82vV05ZgjgvhnescSRBjiNfPh+8wtUoBfD3N03c/DBdVxqHG31lAK8MfiFfkgV72mqcxCak9Xrd9W+n68zn87aQVioVe7u1tTX7xvTuU6lUXEPI7e1t5HI5l8vK5/Mu95jP520BYNttb28H9rnVaoUaMmua5jpPAPjmm29sJx2Ed59hOPu1traGxcVFFAoFKIoCWZZDD/O9vxt2vGKxaAsp++7WrVsQRRGVSgX1et1+WLC+8DriQTx0vKfpx08FrOsCftD6X7wGWEPzzp6JWheYmTK552u/y8yLeOvg/RllOubOviWqUVzpQi5clj0ON+r8N4+QX81Zw/u4XWliyaaNjQ3fz5ngdDqdPnfTarXQbrcBWEKYzR694Yu5ROZaAdhu1O//bDtnrDMJkj4+AJfYffbZZ7Ed1xvC0DTNvv6lUgnZbNZ+8Om63heiGYWHeQGfe9bOnBOBZkHAf+YmBmbcd/bDrcAU1/TKJCm1TZTa4RI2N84GX6Mo0zF5X3QXlMH/IUT8MS43ygg7bTVuEnu2nz9/vu8zp5sMElpN0+wkSS6Xs91Xt9uFoigQRdEWWKcoM1fIvuMRUufwn9Hr9UKJI4/z9YtVbm9vc7s7wzDsYXeYuKu3fRYKYQ8cJppO6vW67fSvX79u71utVkO362VBGrya0cengI9Pse8F+z32jLAxU/UEJJqYC7+mItTqRg/zAj5Z74+RRlkcJIwrvXNBwOPX7vaf6dbShTyuNE436vxsXK40NiF1DtmdcTgAriQQI0is3rx54/v5xsaGnfDI5XL44IMPAFjCV61WcffuXbtt5zEGiWJQljwoK80qBAC44pcABro1v6z/yspKqCF6r9ez2w2LX/u9Xs/ldBm6rqPZbKJcLtsi6o0Nj8K8GG4JNyDaPPPdA/iGCo4rz3QTj7b5p1POZqwQyRfPj84x6uIgAH+sNCgL/oNmDn0gxO1GGWGSXnHHSmMb2pfLZfvHKaKNRiOW4a/T8Z0/f952VaqqwjAMdDodAJaQOt1wVAFwwhIx5XIZpVLJFtFGo+Hr7uJkFAFlMCHUNM2+jplMBt99953v9s1m05Vwi+pGlVPAP/+Ubl3nSXzdyLcv+YbWjM9PC65XjPC60a1e8Ewo5kp58KvNtFzp4P2ScKM83zlxLvEXB7E5Uq9gsZia83PmqgBLDP1EjjlNL4ZhQNd1u6yHuSXmdlVVtYf3THSCsu+MsK6QiZEkSXZYwZkwC+Lrr7/mbmMYzmvIi9dhs6SeKIrI5/N9IwbDMNBut1Eul6Fp2tDrOAwehxMnrKTnpMHWIP3x03BD/HNN61x53SgrdwoiSVealBtljMuVxuZIV1ZWXD/VarVPpLrdri0Eg+pPGX7i7N3GKaTeYwyKW44Cy9qvrq7afWETBZIkm826htlRcYYh/OLEcfPtSxM/pegQr6nJ1AqmwePX4a7V9KQ1xA/jRv2EzEmSrjRJNxpmGyBeV5r6FFFneVKlUnFl5kulkp1o8hsqe0WEDecBuIb3jCQz6qw2UxRFFIvFxNrJZrOuWO6TJ08iHzMN8XSysw988dzEl8+TmxLK+Kpz8t8ieq0Tfoj/93P8bpQH3gx+0Dx2vwx+0m6UMY4MfuoVeY1GA8ViEZlMxo41tlotV+ImKBHiFUbvkJQN7xlBlQGMK1eu+GbOvVNE/Wi1WiiXyxBFEZcvX7ZjtX4ETTENSmo5+yVJkh2q6HQ6IzlSb/t+jj4NHr+2akVvnBVGXrE9iK2e9fK7d2FK6ChD/Mzvhm/D40adfeDN4PutruSXwY/iRsOGa9LO4KfuSA3DwOrqqisL7UzcsCy8nyjxCKmTYUN7VuDv/eFN7DBXys4hCL82BpUxOfvF+tJut0dO+gS1W6vVUqmDdcLetXSueYgvn5t4tB3OfXl5sWe50HPNd0NEGWGH+DyEjRvH6UqjutF7v4UTu7RdaSRHOszxBaFpGm7fvo1SqWRPsdR1Hd1uF41GI9DZ6bpui5eu633bGYaBWq1mi7LfcZzHCMKbXGHbe8+31Wohk8m4pqYywl6boH4ZhgFVVUMnfAa1z3NMtn/URNMgnHPs2VTQ2Yw1zx4AZrPuaZ4s7qbumejsWa4nqpMotXkdGr8I/e3lIWamot+c1zomlM3B2/x+EvjIEef7xQD+GyB+YcvBdvaBiy2+c/G7Pk5X6ifiM1PgTvaMsmZCqX2I2Uw61SL0OmaCIBJjXhTeVhbwvcr6pEJCShBEopzJ4sRWUfBCQkoQBBERWiGfIAgiIiSkBEEQESEhJQiCiAgJKUEQRERISAmCICJCQkoQBBERElKCIIiIkJASBEFEhISUIAgiIiSkBEEQESEhJQiCiAgJKUEQRET+D7W/uoAa13LkAAAAAElFTkSuQmCC;" parent="1cqTLkAXftHqGeJ1FnXz-17" vertex="1">
          <mxGeometry x="37" y="62.33" width="136" height="25.35" as="geometry" />
        </mxCell>
        <mxCell id="1cqTLkAXftHqGeJ1FnXz-18" value="" style="group" parent="1" vertex="1" connectable="0">
          <mxGeometry x="390" y="440" width="200" height="150" as="geometry" />
        </mxCell>
        <mxCell id="1cqTLkAXftHqGeJ1FnXz-12" value="GitHub" style="verticalAlign=top;align=left;spacingTop=8;spacingLeft=2;spacingRight=12;shape=cube;size=10;direction=south;fontStyle=4;html=1;" parent="1cqTLkAXftHqGeJ1FnXz-18" vertex="1">
          <mxGeometry width="200" height="150" as="geometry" />
        </mxCell>
        <mxCell id="1cqTLkAXftHqGeJ1FnXz-13" value="" style="dashed=0;outlineConnect=0;html=1;align=center;labelPosition=center;verticalLabelPosition=bottom;verticalAlign=top;shape=mxgraph.weblogos.github" parent="1cqTLkAXftHqGeJ1FnXz-18" vertex="1">
          <mxGeometry x="62.5" y="40" width="75" height="75" as="geometry" />
        </mxCell>
        <mxCell id="1cqTLkAXftHqGeJ1FnXz-21" value="Trigger Webhook" style="edgeStyle=orthogonalEdgeStyle;rounded=0;orthogonalLoop=1;jettySize=auto;html=1;exitX=0;exitY=0;exitDx=0;exitDy=100;exitPerimeter=0;" parent="1" source="1cqTLkAXftHqGeJ1FnXz-11" edge="1">
          <mxGeometry relative="1" as="geometry">
            <mxPoint x="610" y="320" as="targetPoint" />
            <Array as="points">
              <mxPoint x="760" y="380" />
              <mxPoint x="610" y="380" />
            </Array>
          </mxGeometry>
        </mxCell>
        <mxCell id="1cqTLkAXftHqGeJ1FnXz-26" value="CI/CD with GitHub Actions" style="edgeStyle=orthogonalEdgeStyle;rounded=0;orthogonalLoop=1;jettySize=auto;html=1;exitX=0;exitY=0;exitDx=0;exitDy=95;exitPerimeter=0;entryX=1;entryY=0.484;entryDx=0;entryDy=0;entryPerimeter=0;" parent="1" source="1cqTLkAXftHqGeJ1FnXz-12" target="1cqTLkAXftHqGeJ1FnXz-7" edge="1">
          <mxGeometry relative="1" as="geometry" />
        </mxCell>
        <mxCell id="1cqTLkAXftHqGeJ1FnXz-27" style="edgeStyle=orthogonalEdgeStyle;rounded=0;orthogonalLoop=1;jettySize=auto;html=1;entryX=0;entryY=0;entryDx=165;entryDy=290;entryPerimeter=0;" parent="1" source="1cqTLkAXftHqGeJ1FnXz-3" target="1cqTLkAXftHqGeJ1FnXz-7" edge="1">
          <mxGeometry relative="1" as="geometry" />
        </mxCell>
      </root>
    </mxGraphModel>
  </diagram>
</mxfile>
